<svg xmlns="http://www.w3.org/2000/svg"
     viewBox="0 0 85 85"
     aria-hidden="true"
     width="85"
     height="85"
>
    <path
            d="m54.34,0h-23.68C13.73,0,0,13.73,0,30.66v23.68c0,16.93,13.73,30.66,30.66,30.66h23.68c16.93,0,30.66-13.73,30.66-30.66v-23.68c0-16.93-13.73-30.66-30.66-30.66Zm1.03,45.82h-9.55v9.55c0,1.84-1.49,3.32-3.32,3.32s-3.32-1.49-3.32-3.32v-9.55h-9.55c-1.83,0-3.32-1.49-3.32-3.32s1.49-3.32,3.32-3.32h9.55v-9.55c0-1.84,1.49-3.32,3.32-3.32s3.32,1.49,3.32,3.32v9.55h9.55c1.83,0,3.32,1.49,3.32,3.32s-1.49,3.32-3.32,3.32Z"
            fill-rule="evenodd"
    />
</svg>
