<svg
  xmlns="http://www.w3.org/2000/svg"
  viewBox="0 0 511.99 426.67"
  width="22"
  height="19"
>
  <path
    d="m463.99,0H133.32c-26.47,0-48,21.53-48,48v192c0,26.47,21.53,48,48,48h330.67c26.47,0,48-21.53,48-48V48c0-26.47-21.53-48-48-48ZM197.32,96h-32c-8.83,0-16-7.17-16-16s7.17-16,16-16h32c8.83,0,16,7.17,16,16s-7.17,16-16,16Zm101.33,112c-35.29,0-64-28.71-64-64s28.71-64,64-64,64,28.71,64,64-28.71,64-64,64Zm133.33,16h-32c-8.83,0-16-7.17-16-16s7.17-16,16-16h32c8.83,0,16,7.17,16,16s-7.17,16-16,16Z"/>
  <path
    d="m431.99,320H101.32c-26.47,0-48-21.53-48-48V85.03L1.57,277.97c-6.66,25.41,8.51,51.75,33.96,58.77l329.88,88.34c4.1,1.07,8.21,1.58,12.25,1.58,21.27,0,40.73-14.19,46.31-35.52l19.63-72.75c-3.73.96-7.57,1.6-11.61,1.6h0Z"/>
</svg>
