<svg xmlns="http://www.w3.org/2000/svg"
     viewBox="0 0 384 426.65"
     width="384"
     height="426.65"
     aria-hidden="true"
>
    <path d="m311.55,108.01c5.14-10.11,8.31-21.38,8.31-33.47C319.85,33.44,286.4,0,245.27,0c-20.89,0-39.75,8.69-53.3,22.57C178.41,8.69,159.56,0,138.67,0c-41.12,0-74.58,33.44-74.58,74.54,0,12.1,3.17,23.36,8.31,33.48C31.46,114.57,0,149.83,0,192.57v148.17c0,47.37,38.54,85.92,85.94,85.92h212.15c47.37,0,85.92-38.54,85.92-85.92v-148.17c0-42.76-31.49-78.04-72.45-84.56h0Zm-98.19-33.47c0-17.58,14.32-31.87,31.92-31.87s31.92,14.29,31.92,31.87-14.32,31.87-31.92,31.87h-31.92v-31.87Zm-74.69-31.87c17.59,0,31.92,14.29,31.92,31.87v31.87h-31.92c-17.59,0-31.92-14.29-31.92-31.87s14.32-31.87,31.92-31.87Zm74.58,283.94c0,11.79-9.55,21.33-21.33,21.33s-21.33-9.54-21.33-21.33v-126.02c0-11.79,9.55-21.33,21.33-21.33s21.33,9.54,21.33,21.33v126.02Z"/>
</svg>
