<svg
  xmlns="http://www.w3.org/2000/svg"
  viewBox="0 0 384 426.67"
  width="17"
  height="19"
>
  <path
    fill-rule="evenodd"
    d="m24.99,24.99C0,49.99,0,90.21,0,170.67v85.33c0,80.45,0,120.68,24.99,145.67,24.99,24.99,65.22,24.99,145.67,24.99h42.67c80.45,0,120.68,0,145.67-24.99,24.99-24.99,24.99-65.22,24.99-145.67v-85.33c0-80.45,0-120.68-24.99-145.67C334.01,0,293.79,0,213.33,0h-42.67C90.21,0,49.99,0,24.99,24.99Zm81.67,129.67c-8.84,0-16,7.16-16,16s7.16,16,16,16h170.67c8.84,0,16-7.16,16-16s-7.16-16-16-16H106.67Zm0,85.33c-8.84,0-16,7.16-16,16s7.16,16,16,16h106.67c8.84,0,16-7.16,16-16s-7.16-16-16-16h-106.67Z"
  />
</svg>
