<svg
        xmlns="http://www.w3.org/2000/svg"
        viewBox="0 0 448 448"
>
    <path d="m224,0C100.29,0,0,100.29,0,224s100.29,224,224,224,224-100.29,224-224S347.71,0,224,0Zm1.38,206.83l12.25,6.06c24.77,12.2,50.38,24.81,50.38,59.11-.09,29.1-19.82,54.47-48,61.73v2.27c0,8.84-7.16,16-16,16s-16-7.16-16-16v-2.27c-28.18-7.25-47.91-32.63-48-61.73,0-8.84,7.16-16,16-16s16,7.16,16,16c0,17.67,14.33,32,32,32s32-14.33,32-32c0-12.98-6.58-17.63-32.52-30.4l-12.23-6.05c-22.83-11.23-51.25-25.19-51.25-59.55.09-29.1,19.82-54.47,48-61.73v-2.27c0-8.84,7.18-15.99,16.02-15.98,8.82,0,15.98,7.16,15.98,15.98v2.27c28.18,7.25,47.91,32.63,48,61.73,0,8.84-7.16,16-16,16s-16-7.16-16-16c0-17.67-14.33-32-32-32s-32,14.33-32,32c0,13.06,10.17,19.42,33.38,30.83h0Z"/>
</svg>
