<svg xmlns="http://www.w3.org/2000/svg"
     viewBox="0 0 512.01 374.98"
     width="512.01"
     height="374.98"
>
    <path fill-rule="evenodd"
          d="m511.96,295.28c-1.2-66.8-9.09-134.35-22.03-202.53C479.39,45.38,441.47,3.19,380.88.1c-44.73-1.84-53.38,23.64-104.06,23.15-13.88-.09-27.75-.09-41.63,0C184.5,23.74,175.83-1.74,131.12.1,70.52,3.19,31.42,45.27,22.03,92.75,9.08,160.93,1.19,228.47,0,295.27c-.29,46.51,45.63,77.45,75.93,79.57,58.53,4.42,105.03-98.79,140.46-98.8,26.41.15,52.81.16,79.22,0,35.44,0,81.9,103.23,140.47,98.81,30.29-2.12,77.4-33.27,75.89-79.57h-.01ZM190.9,164.94h-27.3v27.3c0,11.52-9.34,20.86-20.86,20.86s-20.86-9.34-20.86-20.86v-27.3h-27.3c-11.52,0-20.86-9.34-20.86-20.86s9.34-20.86,20.86-20.86h27.3v-27.3c0-11.52,9.34-20.86,20.86-20.86s20.86,9.34,20.86,20.86v27.3h27.3c11.52,0,20.86,9.34,20.86,20.86s-9.34,20.86-20.86,20.86h0Zm168.57,48.15c-16.33.44-29.91-12.46-30.35-28.78-.43-16.38,12.48-29.98,28.8-30.4,16.34-.41,29.94,12.48,30.36,28.82.41,16.34-12.48,29.94-28.81,30.36h0Zm49.25-78.85c-16.33.46-29.94-12.45-30.39-28.78-.41-16.36,12.48-29.94,28.82-30.39,16.36-.43,29.94,12.48,30.38,28.82.43,16.33-12.49,29.94-28.81,30.35Z"/>
</svg>
