<svg xmlns="http://www.w3.org/2000/svg"
     width="20"
     height="20"
     viewBox="0 0 409.6 409.6"
>
    <path d="m126.36,92.23l18.1,18.1c33.34-33.33,87.36-33.33,120.68,0l18.11-18.1c-43.34-43.33-113.56-43.33-156.89,0Z"/>
    <path d="m375.46,170.66C375.46,76.4,299.08,0,204.8,0S34.14,76.4,34.14,170.66c-18.85,0-34.14,15.28-34.14,34.14v102.4c0,18.85,15.28,34.14,34.14,34.14h51.2c9.43,0,17.06-7.63,17.06-17.07v-85.33c0-9.38-4.26-23.47-9.47-31.27l-24.66-37c0-75.42,61.12-136.54,136.54-136.54s136.54,61.12,136.54,136.54l-24.67,37c-5.21,7.8-9.47,21.88-9.47,31.27v90.1c-25.02,28.42-61.56,46.43-102.4,46.43h-34.14v34.14h34.14c55.8,0,105.16-26.89,136.3-68.26h34.37c18.85,0,34.14-15.28,34.14-34.14v-102.4c0-18.85-15.28-34.14-34.14-34.14Z"/>
</svg>
