<svg
  xmlns="http://www.w3.org/2000/svg"
  viewBox="0 0 426.67 512"
  width="426.67"
  height="512"
>
  <path
    d="m362.67,179.71v-30.38C362.67,66.86,295.81,0,213.33,0S64,66.86,64,149.33v30.38C25.17,196.66,0.06,234.97,0,277.33v128c0.07,58.88,47.79,106.6,106.67,106.67h213.33c58.88-.07,106.6-47.79,106.67-106.67v-128c-.05-42.36-25.17-80.68-64-97.62Zm-128,182.95c0,11.78-9.55,21.33-21.33,21.33s-21.33-9.55-21.33-21.33v-42.67c0-11.78,9.55-21.33,21.33-21.33s21.33,9.55,21.33,21.33v42.67Zm85.33-192H106.67v-21.33c0-58.91,47.76-106.67,106.67-106.67s106.67,47.76,106.67,106.67v21.33Z"/>
</svg>
