<?xml version="1.0" encoding="UTF-8"?><svg id="Layer_2" xmlns="http://www.w3.org/2000/svg" xmlns:xlink="http://www.w3.org/1999/xlink" viewBox="0 0 986.95 184.31"><defs><style>.cls-1{fill:#fff;}.cls-2{fill:url(#linear-gradient);}.cls-2,.cls-3,.cls-4,.cls-5,.cls-6,.cls-7,.cls-8,.cls-9{fill-rule:evenodd;}.cls-2,.cls-7,.cls-8,.cls-9{fill-opacity:.36;}.cls-3{fill:url(#linear-gradient-8);}.cls-4{fill:url(#linear-gradient-6);}.cls-5{fill:url(#linear-gradient-7);}.cls-6{fill:url(#linear-gradient-5);}.cls-7{fill:url(#linear-gradient-3);}.cls-8{fill:url(#linear-gradient-4);}.cls-9{fill:url(#linear-gradient-2);}</style><linearGradient id="linear-gradient" x1="56.14" y1="1180.95" x2="56.14" y2="1105.54" gradientTransform="translate(0 1289.84) scale(1 -1)" gradientUnits="userSpaceOnUse"><stop offset="0" stop-color="#345699"/><stop offset="1" stop-color="#548df0"/></linearGradient><linearGradient id="linear-gradient-2" x1="59.87" y1="1245.21" x2="59.87" y2="1147.97" xlink:href="#linear-gradient"/><linearGradient id="linear-gradient-3" x1="122.83" y1="1289.84" x2="122.83" y2="1180.89" xlink:href="#linear-gradient"/><linearGradient id="linear-gradient-4" x1="24.21" y1="1266.53" x2="132.84" y2="1266.53" xlink:href="#linear-gradient"/><linearGradient id="linear-gradient-5" x1="91.82" y1="1213.9" x2="91.82" y2="1105.53" gradientTransform="translate(0 1289.84) scale(1 -1)" gradientUnits="userSpaceOnUse"><stop offset="0" stop-color="#345699"/><stop offset=".19" stop-color="#35599e"/><stop offset=".42" stop-color="#3b63ad"/><stop offset=".68" stop-color="#4473c7"/><stop offset=".96" stop-color="#5189ea"/><stop offset="1" stop-color="#548df0"/></linearGradient><linearGradient id="linear-gradient-6" x1="107.18" y1="1277.38" x2="107.18" y2="1147.99" gradientTransform="translate(0 1289.84) scale(1 -1)" gradientUnits="userSpaceOnUse"><stop offset="0" stop-color="#345699"/><stop offset=".16" stop-color="#365aa0"/><stop offset=".4" stop-color="#3e67b4"/><stop offset=".68" stop-color="#4a7cd5"/><stop offset=".87" stop-color="#548df0"/></linearGradient><linearGradient id="linear-gradient-7" x1="156.85" y1="1289.84" x2="156.85" y2="1180.89" gradientTransform="translate(0 1289.84) scale(1 -1)" gradientUnits="userSpaceOnUse"><stop offset="0" stop-color="#345699"/><stop offset=".19" stop-color="#385ea5"/><stop offset=".53" stop-color="#4573c8"/><stop offset=".87" stop-color="#548df0"/></linearGradient><linearGradient id="linear-gradient-8" x1="71.53" y1="1266.53" x2="180.16" y2="1266.53" gradientTransform="translate(0 1289.84) scale(1 -1)" gradientUnits="userSpaceOnUse"><stop offset="0" stop-color="#345699"/><stop offset=".87" stop-color="#548df0"/></linearGradient></defs><g id="Layer_2-2"><g id="_Слой_1-2"><path id="_нижний" class="cls-2" d="m82.21,134.87l-25.98-25.98-32.95,32.95,42.45,42.45,16.49-16.49c9.06-9.07,9.06-23.9,0-32.95v.02Z"/><path id="_45" class="cls-9" d="m6.81,92.42l45.81-45.81h56.91c3.34,0,6.51-.71,9.4-1.99l.8.8L23.28,141.86l-16.49-16.49c-9.06-9.06-9.06-23.9,0-32.95h.02Z"/><path id="_уголок" class="cls-7" d="m108.12,36.97l-21.89,71.98h49.29c12.82,0,27.11-13.35,23.31-25.6L132.84,0h-23.31c-12.82,0,.21,24.24-1.41,36.97Z"/><path id="_верхний" class="cls-8" d="m47.52,0h85.32v23.31c0,12.82-10.49,23.31-23.31,23.31H24.21v-23.31C24.21,10.49,34.7,0,47.52,0Z"/><path id="_нижний-2" class="cls-6" d="m129.53,134.87l-58.93-58.93-16.49,16.49c-9.06,9.06-9.06,23.9,0,32.95l58.93,58.93,16.49-16.49c9.06-9.06,9.06-23.9,0-32.95h0Z"/><path id="_45-2" class="cls-4" d="m54.13,92.42L134.08,12.46l32.95,32.95-96.43,96.43-16.49-16.49c-9.06-9.06-9.06-23.9,0-32.95h0l.02.02Z"/><path id="_правый_вертик" class="cls-5" d="m133.54,23.31v85.64h23.31c12.82,0,23.31-10.49,23.31-23.31V0h-23.31c-12.82,0-23.31,10.49-23.31,23.31Z"/><path id="_Верхний" class="cls-3" d="m94.84,0h85.32v23.31c0,12.82-10.49,23.31-23.31,23.31h-85.32v-23.31c0-12.82,10.49-23.31,23.31-23.31Z"/></g><path class="cls-1" d="m344.3,102.3v3.14c-.16,18.05-1.88,23.54-9.26,29.66-3.77,3.14-9.42,5.65-14.6,6.59-3.14.63-10.04.94-19.62.94-19.15,0-23.7-.47-30.13-3.45-8.95-4.24-14.75-11.61-16.79-21.81-1.1-5.18-1.73-19.77-1.73-37.19s2.51-26.68,9.73-33.74c8.47-8.16,16.48-10.04,41.27-10.04,15.54,0,20.56.63,26.68,3.45,7.69,3.61,11.77,9.73,13.18,19.46.47,3.61.63,6.43.78,15.38h-27.78c-.31-6.59-.47-7.69-1.57-9.73-1.88-3.29-5.96-4.39-16.16-4.39s-14.12,1.88-15.85,7.22c-1.26,3.61-1.57,9.1-1.57,30.92,0,16.48,3.14,19.93,18.36,19.93,13.81,0,17.42-2.67,17.42-13.34,0-.31,0-1.73-.16-2.98h27.78Z"/><path class="cls-1" d="m413.98,69.81v-1.88c0-8.32-2.83-10.2-14.75-10.2-13.65,0-16.95,1.88-16.95,10.2,0,3.45.78,5.96,2.35,7.22,1.73,1.57,2.67,1.73,11.61,2.35,25.42,1.88,25.74,1.88,32.33,3.92,11.46,3.61,15.22,10.51,15.22,27.31,0,14.12-2.04,21.34-7.38,26.05-6.91,5.96-15.38,7.85-36.1,7.85-26.68,0-36.72-2.67-42.06-11.14-3.3-5.18-4.24-10.83-4.24-23.54h26.68v2.04c0,4.39.94,7.06,3.14,8.63,2.35,1.88,3.61,2.04,16.48,2.04,9.1,0,10.51-.16,12.87-2.2,2.04-1.73,2.98-4.08,2.98-8.32,0-7.38-2.2-9.1-13.18-9.73-17.11-.94-25.74-1.88-31.07-3.14-13.03-3.29-17.73-10.99-17.73-29.66,0-12.71,2.67-20.56,8.63-24.8,6.91-4.86,15.69-6.43,36.1-6.43,21.97,0,30.92,2.2,36.25,8.95,3.92,4.71,5.65,10.99,5.65,19.77l-.16,4.71h-26.68Z"/><path class="cls-1" d="m549.73,82.68c.16,8.95.31,16.95.31,22.44,0,15.38-1.88,22.29-7.53,28.41-6.75,7.06-15.69,9.1-41.43,9.1-15.07,0-21.5-.79-27.62-3.45-13.97-5.96-19.46-17.42-19.46-40.18,0-8.63.31-24.01.63-29.19.78-11.93,5.49-21.03,13.5-26.37,8.47-5.65,16.01-7.06,38.29-7.06,18.36,0,24.8.94,31.86,5.02,7.69,4.24,10.99,12.55,11.46,28.41h-28.4c-1.1-8.32-3.92-10.04-17.11-10.04-11.61,0-16.79,1.88-19.3,6.91-1.73,3.3-2.2,7.53-2.2,21.66s.63,20.72,1.88,24.17c1.88,4.71,6.91,6.75,17.11,6.75s15.69-1.41,18.05-4.87c1.73-2.67,2.04-4.39,2.2-12.4h-19.46v-19.3h47.24Z"/><path class="cls-1" d="m638.24,39.99c10.04,4.39,15.85,11.77,18.05,22.91,1.1,4.87,1.41,12.56,1.41,27.15,0,22.6-1.1,29.82-6.12,37.67-6.91,10.99-18.83,14.91-44.41,14.91-16.32,0-24.48-1.41-31.23-5.65-8.16-5.02-12.55-11.61-14.6-21.81-.78-4.39-1.1-9.73-1.1-20.09,0-18.99.79-29.19,2.83-36.25,2.35-8.79,9.57-15.85,20.09-19.62,5.65-1.88,14.12-2.82,27.46-2.82,14.28,0,21.5.94,27.62,3.61Zm-46.92,26.68c-1.73,3.45-2.2,8.63-2.2,24.17,0,25.9,1.25,27.62,20.4,27.62,11.46,0,15.07-1.57,17.42-7.53,1.57-4.08,2.04-8.79,2.04-22.6s-.31-17.73-1.88-21.5c-2.2-5.02-5.96-6.43-17.26-6.43-12.24,0-16.01,1.26-18.52,6.28Z"/><path class="cls-1" d="m671.35,37.17h52.89c15.07,0,21.81,1.41,27.93,6.12,6.75,5.02,9.26,12.4,9.26,26.52,0,15.22-1.88,22.29-7.06,26.37-2.67,2.2-5.18,3.14-12.55,5.02v1.1c12.87.63,19.15,7.53,18.83,20.4v19.15h-28.56v-13.97c.31-9.73-3.45-14.12-11.77-13.81h-20.87v27.78h-28.09V37.17Zm50.38,53.2c9.26,0,10.99-2.51,10.99-16.63,0-10.36-2.04-12.55-12.4-12.55h-20.87v29.19h22.29Z"/><path class="cls-1" d="m865.48,37.17v66.07c0,1.57-.78,13.5-.94,14.91-1.1,8.63-5.65,15.69-12.71,19.62-6.91,3.77-13.65,4.87-31.39,4.87-16.63,0-24.8-1.1-31.7-4.24-9.26-4.39-13.18-10.83-13.97-23.07-.31-3.14-.31-4.24-.31-9.89V37.17h28.09v68.27c0,11.3,2.83,13.18,18.83,13.18,13.5,0,16.01-2.2,16.01-14.59V37.17h28.09Z"/><path class="cls-1" d="m986.95,141.84h-47.55l-16.48-44.1c-2.2-6.12-4.55-12.24-6.75-18.2l-6.28-18.36h-1.26l.47,9.73c.63,14.28.78,16.64.78,29.03v41.9h-27.46V37.17h47.24l16.63,44.1c2.2,5.96,4.39,11.77,6.75,17.73,2.04,5.96,4.08,11.93,6.12,17.73h1.1l-.31-9.42c-.63-13.81-.78-15.85-.78-28.25v-41.9h27.78v104.68Z"/></g></svg>