<svg width="40" height="14" viewBox="0 0 40 14" fill="none" xmlns="http://www.w3.org/2000/svg">

    <path d="M0 8.63636L2.72727 14L5 8.63636H13L10.1818 3.18182L9.09091 5.90909H6L7.36364 2.54545H9.90909L8.54545 0H3.45455L0 8.63636Z" fill="#F2911B"/>
    <path d="M11.4545 0L14.2727 5.36364L16.3636 0H11.4545Z" fill="#F2911B"/>
    <path d="M18.6364 14L15.8182 8.63636L19.1818 0H24.3636L18.6364 14Z" fill="#F2911B"/>
    <path d="M26.4545 14L23.7273 8.63636L27.0909 0H32.0909L26.4545 14Z" fill="#F2911B"/>
    <path d="M39.9091 0H34.8182L33.8182 2.54545H38.9091L39.9091 0Z" fill="#F2911B"/>
    <path d="M38 4.72727H33L32.0909 7.18182H37L38 4.72727Z" fill="#F2911B"/>
    <path d="M36.0909 9.72727H31L29.2727 14H34.5455L36.0909 9.72727Z" fill="#F2911B"/>
    <mask id="mask0_5028_197515" style="mask-type:alpha" maskUnits="userSpaceOnUse" x="0" y="0" width="40" height="14">
      <path d="M0 8.63636L2.72727 14L5 8.63636H13L10.1818 3.18182L9.09091 5.90909H6L7.36364 2.54545H9.90909L8.54545 0H3.45455L0 8.63636Z" fill="#FFC6B0"/>
      <path d="M11.4545 0L14.2727 5.36364L16.3636 0H11.4545Z" fill="#FFC6B0"/>
      <path d="M18.6364 14L15.8182 8.63636L19.1818 0H24.3636L18.6364 14Z" fill="#FFC6B0"/>
      <path d="M26.4545 14L23.7273 8.63636L27.0909 0H32.0909L26.4545 14Z" fill="#FFC6B0"/>
      <path d="M39.9091 0H34.8182L33.8182 2.54545H38.9091L39.9091 0Z" fill="#FFC6B0"/>
      <path d="M38 4.72727H33L32.0909 7.18182H37L38 4.72727Z" fill="#FFC6B0"/>
      <path d="M36.0909 9.72727H31L29.2727 14H34.5455L36.0909 9.72727Z" fill="#FFC6B0"/>
    </mask>
    <g mask="url(#mask0_5028_197515)">
      <path d="M-2.5 6L-0.5 15C-0.166667 15.1667 0.6 15.5 1 15.5C1.5 15.5 3.5 15 4 15C4.4 15 4.83333 14.3333 5 14L6 12C6.4 11.2 7.16667 11.3333 7.5 11.5C7.66667 11.5 8.1 11.6 8.5 12C9 12.5 10 12 11 12C12 12 13.5 11 14 10.5C14.5 10 14 9.5 13.5 9C13 8.5 13.5 8 13.5 7.5C13.5 7 13 6.5 13 6C13 5.6 12.6667 5.16667 12.5 5C12.3333 4.66667 11.9 3.9 11.5 3.5C11.1 3.1 11 2 11 1.5L10 0V-2L6.5 -3L0.5 -2L-2.5 6Z" fill="white"/>
      <path d="M34 -2L28 13.5V16H32.5C33 16 36.5 15.5 36.5 15C36.5 14.5 39.5 8 39.5 7.5C39.5 7 41 4 41 3.5C41 3.1 41.6667 1 42 0L41.5 -2.5L34 -2Z" fill="white"/>
    </g>


</svg>
