<svg xmlns="http://www.w3.org/2000/svg" viewBox="0 0 458.67 458.67" width="24" height="24" aria-hidden="true">
  <path d="M229.33 0C102.68 0 0 102.68 0 229.33s102.68 229.33 229.33 229.33 229.33-102.68 229.33-229.33C458.55 102.72 355.94.12 229.33 0ZM137.38 137.39c14.27-14.55 37.64-14.78 52.19-.5.17.17.34.33.5.5 15.47 13.64 16.95 37.23 3.31 52.69s-37.23 16.95-52.69 3.31c-1.17-1.03-2.28-2.14-3.31-3.31-14.55-14.27-14.78-37.64-.5-52.19.17-.17.33-.34.5-.5ZM180.05 324.7c-4.02 5.09-10.15 8.08-16.64 8.11-11.78.04-21.37-9.48-21.41-21.26-.02-4.92 1.67-9.69 4.77-13.51l131.63-164.05c7.33-9.15 20.66-10.67 29.87-3.41 9.24 7.31 10.81 20.72 3.5 29.97l-131.63 164.05ZM321.06 321.29c-14.27 14.55-37.64 14.78-52.19.5-.17-.17-.34-.33-.5-.5-13.64-15.47-12.15-39.06 3.31-52.69 14.11-12.44 35.27-12.44 49.38 0 14.61 14.21 14.93 37.58.71 52.19-.17.17-.33.34-.5.5Z"/>
</svg>
