<svg
        xmlns="http://www.w3.org/2000/svg"
        viewBox="0 0 427.48 426.64"
        width="19"
        height="19"
        aria-hidden="true"

>
    <path d="m150.17,0C94.27,0,48.83,45.44,48.83,101.33s42.88,99.2,98.77,101.12c1.71-.21,3.41-.21,4.69,0h1.49c54.61-1.92,97.49-46.29,97.71-101.12C251.5,45.44,206.06,0,150.17,0h0Z"/>
    <path d="m258.56,259.18c-59.52-39.68-156.59-39.68-216.53,0C14.93,277.31,0,301.84,0,328.08s14.93,50.56,41.81,68.48c29.87,20.05,69.12,30.08,108.37,30.08s78.51-10.03,108.37-30.08c26.88-18.13,41.81-42.45,41.81-68.91-.21-26.24-14.93-50.56-41.81-68.48h0Z"/>
    <path d="m384.61,113.88c3.41,41.39-26.03,77.65-66.77,82.56h-1.07c-1.28,0-2.56,0-3.63.43-20.69,1.07-39.68-5.55-53.97-17.71,21.97-19.63,34.56-49.07,32-81.07-1.49-17.28-7.47-33.07-16.43-46.51,8.11-4.05,17.49-6.61,27.09-7.47,41.81-3.63,79.15,27.52,82.77,69.76h0Z"/>
    <path d="m427.25,311.26c-1.71,20.69-14.93,38.61-37.12,50.77-21.33,11.73-48.21,17.28-74.88,16.64,15.36-13.87,24.32-31.15,26.03-49.49,2.13-26.45-10.45-51.84-35.63-72.11-14.29-11.31-30.93-20.27-49.07-26.88,47.15-13.65,106.45-4.48,142.93,24.96,19.63,15.79,29.65,35.63,27.73,56.11h0Z"/>
</svg>
