<svg xmlns="http://www.w3.org/2000/svg"
     width="17"
     height="17"
     viewBox="0 0 480 454.49"
>
    <path d="m451.36,160.57c-34.28-4.98-58.03-36.8-53.05-71.08.68-4.69,1.89-9.3,3.61-13.72,4.46-11.79.92-25.1-8.8-33.12-20.93-17.57-44.75-31.38-70.4-40.8-11.98-4.45-25.47-.71-33.44,9.28-21.28,27.22-60.6,32.03-87.82,10.74-4-3.13-7.61-6.74-10.74-10.74-7.97-9.99-21.46-13.73-33.44-9.28-23.69,8.7-45.83,21.12-65.6,36.8-10.23,8.1-13.99,21.91-9.28,34.08,13.05,31.9-2.23,68.33-34.13,81.38-5.71,2.34-11.73,3.81-17.87,4.38-12.94,1.38-23.46,11.06-25.92,23.84C1.5,197.08,0,212.09,0,227.13c-.02,12.6.99,25.17,3.04,37.6,2.09,13.21,12.78,23.37,26.08,24.8,34.31,3.22,59.52,33.65,56.3,67.96-.66,6.99-2.49,13.82-5.42,20.2-5.6,12.12-2.24,26.5,8.16,34.88,20.8,17.25,44.39,30.84,69.76,40.16,3.24,1.12,6.65,1.72,10.08,1.76,9.55-.02,18.5-4.67,24-12.48,11.58-16.87,30.74-26.93,51.2-26.88,19.8.03,38.42,9.4,50.24,25.28,7.97,10.72,22.16,14.72,34.56,9.76,23.2-9.34,44.79-22.24,64-38.24,9.9-8.19,13.39-21.82,8.64-33.76-13.41-31.75,1.46-68.35,33.2-81.76,5.39-2.28,11.07-3.78,16.88-4.48,12.78-1.77,22.94-11.61,25.12-24.32,2.57-13.35,3.96-26.89,4.16-40.48,0-14.33-1.34-28.64-4-42.72-2.22-12.43-12.15-22.04-24.64-23.84h0Zm-131.36,66.56c0,44.18-35.82,80-80,80s-80-35.82-80-80,35.82-80,80-80,80,35.82,80,80Z"/>
</svg>
