<svg width="512" height="512" viewBox="0 0 512 512" xmlns="http://www.w3.org/2000/svg">
  <path fill-rule="evenodd" clip-rule="evenodd"
        d="M256 5C117.381 5 5 117.381 5 256C5 394.619 117.381 507 256 507C394.619 507 507 394.619 507 256C507 117.381 394.619 5 256 5ZM372.342 175.7C368.568 215.389 352.223 311.7 343.909 356.155C340.389 374.97 333.457 381.274 326.751 381.892C312.181 383.235 301.111 372.254 286.993 362.999C264.903 348.517 252.421 339.507 230.978 325.378C206.192 309.043 222.262 300.072 236.381 285.404C240.077 281.561 304.298 223.144 305.543 217.85C305.7 217.183 305.847 214.712 304.376 213.408C302.906 212.104 300.739 212.555 299.18 212.908C296.964 213.408 261.667 236.734 193.309 282.884C183.288 289.767 174.219 293.111 166.081 292.944C157.12 292.748 139.883 287.875 127.068 283.708C111.351 278.6 98.8603 275.894 99.9486 267.217C100.507 262.697 106.733 258.079 118.617 253.353C191.789 221.468 240.577 200.456 264.991 190.299C334.702 161.306 349.184 156.267 358.626 156.1C370.45 155.894 373.303 165.65 372.342 175.7Z"
  />
</svg>
