<svg
        xmlns="http://www.w3.org/2000/svg"
        width="23"
        height="23"
        viewBox="0 0 512.04 512.12"
        aria-hidden="true"
>
    <path d="m503.29,91.61c-4.61-43.7-39.15-78.23-82.85-82.82-109.26-11.71-219.46-11.71-328.73,0C47.97,13.33,13.37,47.87,8.75,91.61c-11.67,109.31-11.67,219.56,0,328.87,4.66,43.68,39.17,78.19,82.85,82.85,109.26,11.71,219.46,11.71,328.73,0,43.73-4.61,78.3-39.13,82.97-82.85,11.67-109.31,11.67-219.56,0-328.87h0Zm-102.6,256c-7.45,1.05-43.87,0-45.76,0-9.44.11-18.54-3.52-25.31-10.09-7.68-7.42-14.55-15.56-22.05-23.27-2.21-2.37-4.61-4.55-7.19-6.52-5.99-4.6-11.93-3.55-14.75,3.52-2.2,7.64-3.74,15.46-4.6,23.36-.49,7.13-5.03,11.64-13.06,12.1-4.97.29-9.95.38-14.87.26-17.92-.12-35.55-4.49-51.46-12.74-17.21-9.58-32.21-22.69-44.01-38.46-19.4-24.79-34.91-52.01-48.76-80.09-.73-1.43-14.92-31.59-15.27-33.05-1.28-4.74,0-9.31,3.93-10.91,2.5-.96,49.28,0,50.07,0,7.14-.04,13.49,4.53,15.71,11.32,8.65,22.14,20.49,42.9,35.14,61.61,2.05,2.49,4.45,4.68,7.13,6.49,3.81,2.62,7.42,1.72,8.99-2.71,1.86-6.09,2.96-12.4,3.26-18.76.26-12.63,0-20.92-.7-33.54-.47-8.09-3.32-15.16-15.24-17.45-3.67-.67-3.99-3.69-1.63-6.72,4.92-6.25,11.64-7.27,19.17-7.62,11.23-.67,22.46-.23,33.69,0h2.44c4.89-.04,9.76.45,14.55,1.45,5.8,1.2,10.13,6.06,10.68,11.96.58,3.19.82,6.42.73,9.66-.29,13.76-.96,27.55-1.11,41.31-.14,5.46.36,10.92,1.48,16.26,1.6,7.36,6.63,9.16,11.64,3.87,6.48-6.82,12.43-14.13,17.77-21.88,9.47-14.14,17.28-29.33,23.27-45.27,3.26-8.17,5.82-9.98,14.55-9.98h49.63c2.95-.05,5.89.34,8.73,1.16,4.02,1.06,6.43,5.18,5.37,9.2-.05.18-.1.36-.16.54-2.44,10.91-8.32,20.16-14.55,29.09-10.09,14.28-20.74,28.22-31.07,42.33-1.31,1.86-2.51,3.81-3.58,5.82-3.9,7.01-3.61,10.94,2.04,16.76,9.02,9.28,18.65,17.95,27.35,27.49,6.38,6.94,12.14,14.43,17.22,22.37,6.37,9.89,2.44,19.32-9.43,21l.03.12Z"/>
</svg>
