<svg
        xmlns="http://www.w3.org/2000/svg"
        width="21"
        height="18"
        viewBox="0 0 409.6 348.16"
        aria-hidden="true"
>
    <path d="m389.12,132.09h-42.6c-11.47,0-21.91,4.51-29.49,12.29-8.6,8.4-13.52,20.48-12.29,33.38,1.84,22.12,22.12,38.3,44.24,38.3h40.14c11.47-.41,20.48-9.63,20.48-20.89v-42.19c0-11.26-9.01-20.48-20.48-20.89Z"/>
    <path d="m378.27,246.78h-29.29c-38.91,0-71.68-29.29-74.96-66.56-1.84-21.3,5.94-42.6,21.5-57.75,13.11-13.52,31.33-21.09,51-21.09h31.74c5.94,0,10.85-4.92,10.24-10.85-4.51-49.77-37.48-83.76-86.43-89.5-4.92-.82-10.04-1.02-15.36-1.02H102.4c-5.73,0-11.26.41-16.59,1.23C33.59,7.78,0,46.69,0,102.4v143.36c0,56.52,45.88,102.4,102.4,102.4h184.32c57.34,0,96.87-35.84,101.79-90.52.61-5.94-4.3-10.85-10.24-10.85Zm-152.99-118.78h-122.88c-8.4,0-15.36-6.96-15.36-15.36s6.96-15.36,15.36-15.36h122.88c8.4,0,15.36,6.96,15.36,15.36s-6.96,15.36-15.36,15.36Z"/>
</svg>
