<svg xmlns="http://www.w3.org/2000/svg"
     viewBox="0 0 444.39 320"
     width="24"
     height="16"
     aria-hidden="true"

>
    <path d="m434.88,13.6C427.39,4.98,416.54.02,405.12,0H51.52C31.42-.06,14.23,14.42,10.88,34.24L.32,94.4c-.19.95-.29,1.91-.32,2.88.02,25.46,17.37,47.63,42.08,53.76l6.56,1.6c7.19,1.79,11.92,8.65,11.04,16l-20.8,100.8c-4.75,22.68,9.77,44.91,32.45,49.67,2.85.6,5.76.9,8.67.89h58.24c20.34-.02,37.77-14.55,41.44-34.56l11.2-61.44c4.4.57,8.84.84,13.28.8,46.89.44,87.97-31.31,99.36-76.8.21-1.32.26-2.67.16-4h92.16c19.51-.12,36.02-14.46,38.88-33.76l9.28-65.28c1.6-11.28-1.73-22.7-9.12-31.36ZM87.2,110.24c-2.21,1.2-4.69,1.81-7.2,1.76-6.03.01-11.55-3.4-14.24-8.8l-16-32c-3.99-7.81-.9-17.38,6.92-21.38.04-.02.08-.04.12-.06,7.91-3.99,17.56-.85,21.6,7.04l16,32c3.93,7.91.71,17.5-7.2,21.44h0Zm48,0c-2.21,1.2-4.69,1.81-7.2,1.76-6.03.01-11.55-3.4-14.24-8.8l-16-32c-3.99-7.81-.9-17.38,6.92-21.38.04-.02.08-.04.12-.06,7.91-3.99,17.56-.85,21.6,7.04l16,32c3.93,7.91.71,17.5-7.2,21.44h0Zm111.2,68.96c-14.41,10.35-32.11,15.08-49.76,13.28l8.8-48.48h2.56v16c0,8.84,7.16,16,16,16s16-7.16,16-16v-16h31.36c-4.43,14.06-13.16,26.37-24.96,35.2h0Z"/>
</svg>
