<svg width="24" height="24" viewBox="0 0 24 24" fill="none" xmlns="http://www.w3.org/2000/svg">
  <path d="M10.5019 14.2482L14.4053 12L10.5019 9.75183V14.2482Z" fill="#DAE2F5"/>
  <path d="M11.9966 0C5.37018 0 -0.00341797 5.3736 -0.00341797 12C-0.00341797 18.6264 5.37018 24 11.9966 24C18.623 24 23.9966 18.6264 23.9966 12C23.9966 5.3736 18.623 0 11.9966 0ZM19.4948 12.0123C19.4948 12.0123 19.4948 14.4459 19.186 15.6194C19.013 16.2618 18.5065 16.7682 17.8642 16.9411C16.6907 17.25 11.9966 17.25 11.9966 17.25C11.9966 17.25 7.31476 17.25 6.12897 16.9288C5.48663 16.756 4.98016 16.2493 4.80713 15.607C4.49823 14.4459 4.49823 12 4.49823 12C4.49823 12 4.49823 9.56653 4.80713 8.39301C4.97998 7.75067 5.4989 7.23175 6.12897 7.0589C7.30249 6.75 11.9966 6.75 11.9966 6.75C11.9966 6.75 16.6907 6.75 17.8642 7.07117C18.5065 7.24402 19.013 7.75067 19.186 8.39301C19.5072 9.56653 19.4948 12.0123 19.4948 12.0123Z" fill="#DAE2F5"/>
</svg>
